<?xml version="1.0" encoding="UTF-8" standalone="no"?>
<!DOCTYPE svg PUBLIC "-//W3C//DTD SVG 1.1//EN" "http://www.w3.org/Graphics/SVG/1.1/DTD/svg11.dtd">
<svg width="100%" height="100%" viewBox="0 0 458 112" version="1.1" xmlns="http://www.w3.org/2000/svg" xmlns:xlink="http://www.w3.org/1999/xlink" xml:space="preserve" xmlns:serif="http://www.serif.com/" style="fill-rule:evenodd;clip-rule:evenodd;stroke-linejoin:round;stroke-miterlimit:1.41421;">
    <g>
        <path d="M32.8,90.9L41.5,84.1L46.5,76.3L51.1,73L51.1,67.3L41.7,62.6L36.6,71.4L33.2,82.7L25.7,84.5L13.4,95.6L8.7,104.2C15.8,105.2 22.9,107 30.4,106.2C31.2,106.4 32.4,106.4 33.3,106.1L36.6,96.2L32.8,90.9Z" style="fill:rgb(0,0,0);fill-rule:nonzero;"/>
        <path d="M67,60.3C66.3,59.3 65.6,58.3 64.8,57.3C60.5,51.4 56.3,45.4 53.4,38.6C52.8,37.4 52.1,36.3 51.5,35.1C49.7,31.6 48.1,28 46.9,24.2C46.3,25 45.9,25.9 45.5,26.8C44.2,29.4 43.4,32.2 41.8,34.7C41.2,35.9 40.7,37.1 40.1,38.3C37.8,43 35.3,47.7 32.1,52.2C31.4,53.3 30.6,54.5 29.8,55.6C29,56.7 28.2,57.8 27.3,58.9C26.6,60 25.9,61 25.3,62.1C23.7,64.3 22.2,66.5 20.7,68.7C20,69.8 19.2,70.9 18.5,72C14.3,80.9 7.9,88.7 2.8,96.8C2.2,97.9 1.7,99 1.2,100.2C0.7,101.4 0.3,102.6 0,103.8L1.1,103.8C3.6,103.8 6.1,104 8.6,104.3L8.4,104.2L13.2,95.4L25.5,84.1L32.9,82.3L36.2,71.1L41.4,62.2L41.4,55.5L31.9,60.5L28.6,67.9L28.3,67.7L31.7,60.2L41.6,55L46.3,49.3L50.1,45L50.1,41.5L50.5,41.5L50.5,45.1L46.7,49.5L56.2,56.5L58.1,65.2L61.4,69.1L61.1,69.3L57.7,65.3L55.8,56.6L46.4,49.7L42,55.1L42,62L51.7,66.8L51.7,73L47.1,76.3L49.8,82.7L53.9,89.1L55.1,89.8L55,89.9C55.4,89.3 55.8,88.7 56.2,88.2C56.8,87.3 57.4,86.4 57.9,85.4C58.3,84.7 58.7,83.9 59.2,83.2C60.8,80.4 62.5,77.5 64.3,74.4C64.9,73.4 65.5,72.3 66.1,71.3C67.4,69.1 68.8,67 70.3,65C69.9,64.4 69.6,63.8 69.2,63.2C68.3,62.4 67.7,61.3 67,60.3Z" style="fill:rgb(189,189,189);fill-rule:nonzero;"/>
        <path d="M146.1,67.6C143.1,58.9 136.4,52.2 132.2,44.1C131.8,43.3 131.4,42.5 130.9,41.7L129.7,39.3C129.2,38.2 128.6,37.2 128.1,36.1C121.5,26.4 115.2,16.4 110.4,5.6C109.9,4.7 109.4,3.9 109,3.2C107.8,1.1 107.1,-0.1 107.1,-0.1C107.1,-0.1 103.8,5.6 98.8,14.4C98.3,15.2 97.9,16 97.4,16.9L95.6,19.6C92.3,24.6 89.6,29.8 87.1,35.2C86.6,36.3 86.1,37.3 85.6,38.4C84.8,40.6 84,42.8 83.1,45C82.6,46.1 82.1,47.1 81.6,48.2C78.8,54.7 74.3,59.8 70.2,65.2C68.7,67.2 67.2,69.3 66,71.5C65.4,72.5 64.8,73.6 64.2,74.6C62.4,77.7 60.7,80.6 59.1,83.4C58.7,84.2 58.2,84.9 57.8,85.6C57.3,86.5 56.7,87.5 56.1,88.4C55.7,89 55.3,89.6 54.9,90.1L54.8,90.3C54.6,90.6 54.4,90.8 54.3,91.1C52.4,94.7 48.7,97.3 46.3,100.8L46,101C49.6,100.3 53.2,100.2 56.8,100.6L56.9,100.5L57,100.3L60.9,94.5L69.4,89.3L76.4,80.8L78.3,79.6L86.1,74.6L93.1,71.1L100.7,55.1L108.4,49.6L106.7,45.4L95.4,49.8L83.8,61.6L80.8,72.2L80.4,72.1L83.4,61.4L95,49.5L106.6,45L115.4,41.4L111.8,36.8L109.6,29.8L106.5,25.7L106.8,25.5L109.9,29.7L112.1,36.7L115.8,41.4L120.2,43.9L129.9,53.9L133.3,63.9L132.9,64L129.6,54.1L120,44.2L115.8,41.7L107,45.3L108.9,49.7L108.8,49.8L107,53.3L117.6,59.4L125.3,67L131,78L141.7,82.3L141.6,82.6L130.7,78.3L125,67.4L119.4,76.6L111.7,84.5L105.2,87.7L105,87.4L111.5,84.2L119.1,76.4L124.7,67.1L117.1,59.7L106.3,53.5L107.9,50.3L100.7,55.4L93.2,71.3L95.6,84.3L95.2,84.4L93,71.5L86.2,74.9L78.4,79.9L76.5,81.1L69.5,89.6L61,94.8L57.2,100.6L57.6,100.6C58.4,100.8 59.2,100.7 60,100.9C60.3,101 60.6,101 60.8,101.1C69.7,103.3 78.7,104.5 87.7,104.3C88.8,104.3 90,104.2 91.1,104.2C91.2,104.2 91.3,104.1 91.4,104.1C91.9,103.9 92.5,103.6 93,103.4C93.5,103.2 94.1,103 94.6,102.8C99.2,100.6 104,99.3 108.8,99C110,98.9 111.2,98.9 112.4,98.9C114.8,98.7 117.3,98.6 119.7,98.6C120.9,98.6 122.1,98.6 123.3,98.7C124.3,98.7 125.3,98.6 126.3,98.5C128.2,97.7 130.1,97.2 132,97L131.9,96.8L132.4,96.6C136.3,93.4 139.8,90.7 142.6,86.3C143.1,85.4 143.6,84.4 144,83.5C144.4,82.8 144.8,82 145.3,81.3C146.7,78.8 148.2,76.3 149.7,73.8C149,72.5 148.2,71.3 147.5,70C147,69.2 146.6,68.4 146.1,67.6Z" style="fill:rgb(52,52,52);fill-rule:nonzero;"/>
        <path d="M54.1,91.1C54.3,90.8 54.5,90.6 54.6,90.3L53.3,89.6L49.2,83L46.5,76.8L41.6,84.4L33.3,91L37.2,96.1L33.9,106C34.3,105.9 34.6,105.7 34.8,105.5C38.5,103.2 42.3,101.8 46,101.1L46.1,100.9C48.481,97.229 52.141,94.641 54.1,91.1Z" style="fill:rgb(0,0,0);"/>
    </g>
    <g transform="matrix(1.14635,0,0,1.14635,-84.5804,-15.1004)">
        <text x="182px" y="98px" style="font-family:'Arial-BoldMT', 'Arial', sans-serif;font-weight:700;font-size:103.307px;fill:rgb(0,0,0);">T<tspan x="239.404px 279.607px " y="98px 98px ">rx</tspan>vel</text>
    </g>
</svg>
