<?xml version="1.0" encoding="UTF-8" standalone="no"?>
<!DOCTYPE svg PUBLIC "-//W3C//DTD SVG 1.1//EN" "http://www.w3.org/Graphics/SVG/1.1/DTD/svg11.dtd">
<svg width="100%" height="100%" viewBox="0 0 36 36" version="1.1" xmlns="http://www.w3.org/2000/svg" xmlns:xlink="http://www.w3.org/1999/xlink" xml:space="preserve" xmlns:serif="http://www.serif.com/" style="fill-rule:evenodd;clip-rule:evenodd;stroke-linejoin:round;stroke-miterlimit:1.41421;">
    <g transform="matrix(1,0,0,1,-179.854,-2874.68)">
        <g transform="matrix(0.894124,0,0,0.886215,135.145,2044.46)">
            <g transform="matrix(0.510645,0,0,0.510645,25.7157,522.021)">
                <g transform="matrix(0.872788,0,0,0.880577,47.5635,812.291)">
                    <path d="M58.255,23.88L31.503,23.88C27.233,23.88 23.759,27.354 23.759,31.624L23.759,58.376C23.759,62.646 27.233,66.121 31.503,66.121L58.255,66.121C62.525,66.121 66,62.647 66,58.376L66,31.624C66,27.354 62.526,23.88 58.255,23.88ZM44.879,58.906C37.212,58.906 30.974,52.668 30.974,45C30.974,37.333 37.212,31.095 44.879,31.095C52.547,31.095 58.785,37.333 58.785,45C58.785,52.667 52.546,58.906 44.879,58.906ZM59.232,33.97C57.417,33.97 55.941,32.494 55.941,30.68C55.941,28.866 57.417,27.39 59.232,27.39C61.046,27.39 62.522,28.866 62.522,30.68C62.522,32.494 61.046,33.97 59.232,33.97Z" style="fill:#e5e5e5;fill-opacity:0.603922;fill-rule:nonzero;"/>
                </g>
                <g transform="matrix(0.872788,0,0,0.880577,47.5635,812.291)">
                    <path d="M44.879,36.971C40.453,36.971 36.849,40.573 36.849,44.999C36.849,49.427 40.453,53.03 44.879,53.03C49.307,53.03 52.908,49.427 52.908,44.999C52.908,40.574 49.306,36.971 44.879,36.971Z" style="fill:#e5e5e5;fill-opacity:0.603922;fill-rule:nonzero;"/>
                </g>
                <g transform="matrix(0.872788,0,0,0.880577,47.5635,812.291)">
                    <path d="M44.879,0C20.094,0 0,20.094 0,44.879C0,69.664 20.094,89.758 44.879,89.758C69.664,89.758 89.758,69.664 89.758,44.879C89.758,20.094 69.664,0 44.879,0ZM71.875,58.376C71.875,65.887 65.766,71.996 58.255,71.996L31.503,71.996C23.993,71.996 17.883,65.887 17.883,58.376L17.883,31.624C17.883,24.114 23.993,18.004 31.503,18.004L58.255,18.004C65.766,18.004 71.875,24.114 71.875,31.624L71.875,58.376Z" style="fill:#e5e5e5;fill-opacity:0.603922;fill-rule:nonzero;"/>
                </g>
            </g>
        </g>
    </g>
</svg>
