<?xml version="1.0" encoding="UTF-8" standalone="no"?>
<!DOCTYPE svg PUBLIC "-//W3C//DTD SVG 1.1//EN" "http://www.w3.org/Graphics/SVG/1.1/DTD/svg11.dtd">
<svg width="100%" height="100%" viewBox="0 0 896 896" version="1.1" xmlns="http://www.w3.org/2000/svg" xmlns:xlink="http://www.w3.org/1999/xlink" xml:space="preserve" xmlns:serif="http://www.serif.com/" style="fill-rule:evenodd;clip-rule:evenodd;stroke-linecap:round;stroke-linejoin:round;stroke-miterlimit:1.5;">
    <g transform="matrix(1,0,0,1,-445,-32)">
        <g transform="matrix(1,0,0,1,76,0)">
            <rect x="369" y="32" width="896" height="896" style="fill:none;"/>
        </g>
        <g transform="matrix(1,0,0,1,126.215,127.851)">
            <g transform="matrix(1,0,0,1,-41.4392,-5.68434e-14)">
                <g transform="matrix(1.01037,0,0,1,88.0415,28)">
                    <path d="M478,550L960,550" style="fill:none;stroke:black;stroke-width:9.63px;"/>
                </g>
                <g transform="matrix(1,0,0,1.08309,87,-17.6973)">
                    <rect x="551" y="213" width="353" height="337" style="fill:none;stroke:black;stroke-width:9.28px;"/>
                </g>
                <g transform="matrix(0.177226,0,0,0.222552,575.576,197.596)">
                    <path d="M904,227.055C904,219.298 896.091,213 886.35,213L568.65,213C558.909,213 551,219.298 551,227.055L551,535.945C551,543.702 558.909,550 568.65,550L886.35,550C896.091,550 904,543.702 904,535.945L904,227.055Z" style="fill:none;stroke:black;stroke-width:48.1px;"/>
                </g>
                <g transform="matrix(0.177226,0,0,0.222552,575.576,308.596)">
                    <path d="M904,227.055C904,219.298 896.091,213 886.35,213L568.65,213C558.909,213 551,219.298 551,227.055L551,535.945C551,543.702 558.909,550 568.65,550L886.35,550C896.091,550 904,543.702 904,535.945L904,227.055Z" style="fill:none;stroke:black;stroke-width:48.1px;"/>
                </g>
                <g transform="matrix(0.177226,0,0,0.222552,574.576,419.596)">
                    <path d="M904,227.055C904,219.298 896.091,213 886.35,213L568.65,213C558.909,213 551,219.298 551,227.055L551,535.945C551,543.702 558.909,550 568.65,550L886.35,550C896.091,550 904,543.702 904,535.945L904,227.055Z" style="fill:none;stroke:black;stroke-width:48.1px;"/>
                </g>
                <g transform="matrix(0.177226,0,0,0.222552,687.52,197.596)">
                    <path d="M904,227.055C904,219.298 896.091,213 886.35,213L568.65,213C558.909,213 551,219.298 551,227.055L551,535.945C551,543.702 558.909,550 568.65,550L886.35,550C896.091,550 904,543.702 904,535.945L904,227.055Z" style="fill:none;stroke:black;stroke-width:48.1px;"/>
                </g>
                <g transform="matrix(0.177226,0,0,0.222552,687.52,308.596)">
                    <path d="M904,227.055C904,219.298 896.091,213 886.35,213L568.65,213C558.909,213 551,219.298 551,227.055L551,535.945C551,543.702 558.909,550 568.65,550L886.35,550C896.091,550 904,543.702 904,535.945L904,227.055Z" style="fill:none;stroke:black;stroke-width:48.1px;"/>
                </g>
                <g transform="matrix(0.177226,0,0,0.222552,686.52,419.596)">
                    <path d="M904,227.055C904,219.298 896.091,213 886.35,213L568.65,213C558.909,213 551,219.298 551,227.055L551,535.945C551,543.702 558.909,550 568.65,550L886.35,550C896.091,550 904,543.702 904,535.945L904,227.055Z" style="fill:none;stroke:black;stroke-width:48.1px;"/>
                </g>
                <g transform="matrix(0.177226,0,0,0.222552,799.464,197.596)">
                    <path d="M904,227.055C904,219.298 896.091,213 886.35,213L568.65,213C558.909,213 551,219.298 551,227.055L551,535.945C551,543.702 558.909,550 568.65,550L886.35,550C896.091,550 904,543.702 904,535.945L904,227.055Z" style="fill:none;stroke:black;stroke-width:48.1px;"/>
                </g>
                <g transform="matrix(0.177226,0,0,0.222552,799.464,308.596)">
                    <path d="M904,227.055C904,219.298 896.091,213 886.35,213L568.65,213C558.909,213 551,219.298 551,227.055L551,535.945C551,543.702 558.909,550 568.65,550L886.35,550C896.091,550 904,543.702 904,535.945L904,227.055Z" style="fill:none;stroke:black;stroke-width:48.1px;"/>
                </g>
                <g transform="matrix(0.177226,0,0,0.222552,799.464,419.596)">
                    <path d="M904,227.055C904,219.298 896.091,213 886.35,213L568.65,213C558.909,213 551,219.298 551,227.055L551,535.945C551,543.702 558.909,550 568.65,550L886.35,550C896.091,550 904,543.702 904,535.945L904,227.055Z" style="fill:none;stroke:black;stroke-width:48.1px;"/>
                </g>
                <g transform="matrix(0.692695,0,0,0.901639,264.154,-425.508)">
                    <rect x="596" y="612" width="397" height="67" style="fill:none;stroke:black;stroke-width:12.04px;"/>
                </g>
                <g transform="matrix(0.793451,0,0,0.392464,184.103,-53.483)">
                    <rect x="596" y="612" width="397" height="67" style="fill:none;stroke:black;stroke-width:15.46px;"/>
                </g>
                <g transform="matrix(0.901639,0,0,0.901639,132.587,-430.016)">
                    <path d="M652.36,670L652.36,631.027L657.517,631.027L657.517,647.031L677.775,647.031L677.775,631.027L682.933,631.027L682.933,670L677.775,670L677.775,651.63L657.517,651.63L657.517,670L652.36,670Z" style="fill-rule:nonzero;stroke:black;stroke-width:10.73px;stroke-linecap:butt;stroke-miterlimit:1.41421;"/>
                    <path d="M698.118,651.018C698.118,644.549 699.855,639.485 703.328,635.825C706.802,632.165 711.286,630.335 716.78,630.335C720.378,630.335 723.622,631.195 726.51,632.914C729.399,634.633 731.601,637.03 733.117,640.105C734.632,643.18 735.39,646.667 735.39,650.566C735.39,654.519 734.592,658.055 732.997,661.174C731.402,664.293 729.142,666.655 726.218,668.259C723.294,669.863 720.139,670.665 716.754,670.665C713.085,670.665 709.806,669.778 706.917,668.006C704.028,666.234 701.84,663.815 700.351,660.748C698.862,657.682 698.118,654.439 698.118,651.018ZM703.435,651.098C703.435,655.795 704.698,659.495 707.223,662.197C709.749,664.9 712.917,666.252 716.727,666.252C720.609,666.252 723.803,664.887 726.311,662.157C728.819,659.428 730.073,655.556 730.073,650.54C730.073,647.367 729.537,644.598 728.464,642.232C727.392,639.866 725.824,638.032 723.759,636.729C721.694,635.426 719.377,634.775 716.807,634.775C713.156,634.775 710.015,636.029 707.383,638.537C704.751,641.045 703.435,645.232 703.435,651.098Z" style="fill-rule:nonzero;stroke:black;stroke-width:10.73px;stroke-linecap:butt;stroke-miterlimit:1.41421;"/>
                    <path d="M760.119,670L760.119,635.626L747.279,635.626L747.279,631.027L778.17,631.027L778.17,635.626L765.276,635.626L765.276,670L760.119,670Z" style="fill-rule:nonzero;stroke:black;stroke-width:10.73px;stroke-linecap:butt;stroke-miterlimit:1.41421;"/>
                    <path d="M791.734,670L791.734,631.027L819.914,631.027L819.914,635.626L796.891,635.626L796.891,647.562L818.452,647.562L818.452,652.135L796.891,652.135L796.891,665.401L820.818,665.401L820.818,670L791.734,670Z" style="fill-rule:nonzero;stroke:black;stroke-width:10.73px;stroke-linecap:butt;stroke-miterlimit:1.41421;"/>
                    <path d="M835.897,670L835.897,631.027L841.054,631.027L841.054,665.401L860.248,665.401L860.248,670L835.897,670Z" style="fill-rule:nonzero;stroke:black;stroke-width:10.73px;stroke-linecap:butt;stroke-miterlimit:1.41421;"/>
                </g>
                <g transform="matrix(1,0,0,1,64,0)">
                    <rect x="525" y="530" width="12" height="48" style="fill:white;stroke:black;stroke-width:9.68px;"/>
                </g>
                <g transform="matrix(0.868986,0,0,1,163.063,39.078)">
                    <circle cx="495.422" cy="465.422" r="40.422" style="fill:white;stroke:black;stroke-width:10.33px;"/>
                </g>
            </g>
        </g>
    </g>
</svg>
