<?xml version="1.0" encoding="UTF-8" standalone="no"?>
<!DOCTYPE svg PUBLIC "-//W3C//DTD SVG 1.1//EN" "http://www.w3.org/Graphics/SVG/1.1/DTD/svg11.dtd">
<svg width="100%" height="100%" viewBox="0 0 896 896" version="1.1" xmlns="http://www.w3.org/2000/svg" xmlns:xlink="http://www.w3.org/1999/xlink" xml:space="preserve" xmlns:serif="http://www.serif.com/" style="fill-rule:evenodd;clip-rule:evenodd;stroke-linecap:round;stroke-linejoin:round;stroke-miterlimit:1.5;">
    <g transform="matrix(1,0,0,1,-445,-32)">
        <g transform="matrix(1,0,0,1,76,0)">
            <rect x="369" y="32" width="896" height="896" style="fill:none;"/>
        </g>
        <g id="town" transform="matrix(0.933624,0,0,0.933624,893,480)">
            <g transform="matrix(1,0,0,1,-341.5,-283.5)">
                <clipPath id="_clip1">
                    <rect x="0" y="0" width="683" height="567"/>
                </clipPath>
                <g clip-path="url(#_clip1)">
                    <g transform="matrix(1,0,0,1,-469.785,-228.333)">
                        <g transform="matrix(0.90085,0,0,1.43027,305.42,5.35312)">
                            <path d="M588.274,294.803L551,294.803L551,213L904,213L904,550L667.556,550L667.556,523.871L868.11,523.871C876.238,523.871 882.838,523.439 882.838,522.907L882.838,501.733C882.838,501.201 876.238,500.769 868.11,500.769L667.556,500.769L667.556,480.368L868.11,480.368C876.238,480.368 882.838,479.936 882.838,479.404L882.838,458.23C882.838,457.698 876.238,457.266 868.11,457.266L667.556,457.266L667.556,436.864L868.11,436.864C876.238,436.864 882.838,436.432 882.838,435.901L882.838,414.726C882.838,414.194 876.238,413.763 868.11,413.763L667.556,413.763L667.556,393.36L868.11,393.36C876.238,393.36 882.838,392.929 882.838,392.397L882.838,371.223C882.838,370.691 876.238,370.259 868.11,370.259L667.556,370.259L667.556,349.857L868.11,349.857C876.238,349.857 882.838,349.425 882.838,348.893L882.838,327.719C882.838,327.187 876.238,326.755 868.11,326.755L667.556,326.755L667.556,306.353L868.11,306.353C876.238,306.353 882.838,305.921 882.838,305.39L882.838,284.215C882.838,283.683 876.238,283.252 868.11,283.252L603.002,283.252C594.874,283.252 588.274,283.683 588.274,284.215L588.274,294.803Z" style="fill:none;stroke:black;stroke-width:6.47px;"/>
                        </g>
                        <g transform="matrix(0.751722,0,0,0.0980448,421.168,327.374)">
                            <path d="M886.35,213C896.161,213.056 904,219.333 904,227.055L904,535.945C904,543.702 896.091,550 886.35,550L568.65,550C558.909,550 551,543.702 551,535.945L551,227.055C551,219.333 558.839,213.056 568.65,213L886.35,213Z" style="fill:none;stroke:black;stroke-width:14.42px;"/>
                        </g>
                        <g transform="matrix(1,0,0,1,472.573,228.333)">
                            <rect x="81.215" y="198.668" width="353" height="365.001" style="fill:none;stroke:black;stroke-width:7.72px;"/>
                        </g>
                        <g transform="matrix(0.177226,0,0,0.222552,491.364,411.596)">
                            <path d="M904,227.055C904,219.298 896.091,213 886.35,213L568.65,213C558.909,213 551,219.298 551,227.055L551,535.945C551,543.702 558.909,550 568.65,550L886.35,550C896.091,550 904,543.702 904,535.945L904,227.055Z" style="fill:none;stroke:black;stroke-width:38.44px;"/>
                        </g>
                        <g transform="matrix(0.177226,0,0,0.222552,491.364,522.596)">
                            <path d="M904,227.055C904,219.298 896.091,213 886.35,213L568.65,213C558.909,213 551,219.298 551,227.055L551,535.945C551,543.702 558.909,550 568.65,550L886.35,550C896.091,550 904,543.702 904,535.945L904,227.055Z" style="fill:none;stroke:black;stroke-width:38.44px;"/>
                        </g>
                        <g transform="matrix(0.177226,0,0,0.222552,490.364,633.596)">
                            <path d="M904,227.055C904,219.298 896.091,213 886.35,213L568.65,213C558.909,213 551,219.298 551,227.055L551,535.945C551,543.702 558.909,550 568.65,550L886.35,550C896.091,550 904,543.702 904,535.945L904,227.055Z" style="fill:none;stroke:black;stroke-width:38.44px;"/>
                        </g>
                        <g transform="matrix(0.177226,0,0,0.222552,603.308,411.596)">
                            <path d="M904,227.055C904,219.298 896.091,213 886.35,213L568.65,213C558.909,213 551,219.298 551,227.055L551,535.945C551,543.702 558.909,550 568.65,550L886.35,550C896.091,550 904,543.702 904,535.945L904,227.055Z" style="fill:none;stroke:black;stroke-width:38.44px;"/>
                        </g>
                        <g transform="matrix(0.177226,0,0,0.222552,603.308,522.596)">
                            <path d="M904,227.055C904,219.298 896.091,213 886.35,213L568.65,213C558.909,213 551,219.298 551,227.055L551,535.945C551,543.702 558.909,550 568.65,550L886.35,550C896.091,550 904,543.702 904,535.945L904,227.055Z" style="fill:none;stroke:black;stroke-width:38.44px;"/>
                        </g>
                        <g transform="matrix(0.177226,0,0,0.222552,602.308,633.596)">
                            <path d="M904,227.055C904,219.298 896.091,213 886.35,213L568.65,213C558.909,213 551,219.298 551,227.055L551,535.945C551,543.702 558.909,550 568.65,550L886.35,550C896.091,550 904,543.702 904,535.945L904,227.055Z" style="fill:none;stroke:black;stroke-width:38.44px;"/>
                        </g>
                        <g transform="matrix(0.177226,0,0,0.222552,715.252,411.596)">
                            <path d="M904,227.055C904,219.298 896.091,213 886.35,213L568.65,213C558.909,213 551,219.298 551,227.055L551,535.945C551,543.702 558.909,550 568.65,550L886.35,550C896.091,550 904,543.702 904,535.945L904,227.055Z" style="fill:none;stroke:black;stroke-width:38.44px;"/>
                        </g>
                        <g transform="matrix(0.177226,0,0,0.222552,715.252,522.596)">
                            <path d="M904,227.055C904,219.298 896.091,213 886.35,213L568.65,213C558.909,213 551,219.298 551,227.055L551,535.945C551,543.702 558.909,550 568.65,550L886.35,550C896.091,550 904,543.702 904,535.945L904,227.055Z" style="fill:none;stroke:black;stroke-width:38.44px;"/>
                        </g>
                        <g transform="matrix(0.177226,0,0,0.222552,715.252,633.596)">
                            <path d="M904,227.055C904,219.298 896.091,213 886.35,213L568.65,213C558.909,213 551,219.298 551,227.055L551,535.945C551,543.702 558.909,550 568.65,550L886.35,550C896.091,550 904,543.702 904,535.945L904,227.055Z" style="fill:none;stroke:black;stroke-width:38.44px;"/>
                        </g>
                        <g transform="matrix(1,0,0,1,472.573,228.333)">
                            <path d="M32.215,530.248C14.988,527.663 1.667,510.691 1.667,490.167C1.667,467.857 17.406,449.745 36.793,449.745C56.18,449.745 71.919,467.857 71.919,490.167C71.919,509.547 60.042,525.759 44.215,529.683L44.215,563.667L32.215,563.667L32.215,530.248Z" style="fill:none;stroke:black;stroke-width:6.49px;"/>
                        </g>
                        <g transform="matrix(1.38174,0,0,1,-173.685,242)">
                            <path d="M478,550L960,550" style="fill:none;stroke:black;stroke-width:6.41px;"/>
                        </g>
                    </g>
                </g>
            </g>
        </g>
    </g>
</svg>
